Normalized EMG Linear Envelopes
nRows=286
nColumns=4

endheader
time	 med_gas_r	  soleus_r	 tib_ant_r	
1.33065	  0.026282	  0.187331	  0.036356	
1.36391	  0.025874	  0.177117	  0.036425	
1.39718	  0.025617	  0.168500	  0.036489	
1.43044	  0.025640	  0.162480	  0.036558	
1.46371	  0.025945	  0.159565	  0.036629	
1.49698	  0.026424	  0.159608	  0.036683	
1.53024	  0.026952	  0.161811	  0.036689	
1.56351	  0.027470	  0.164927	  0.036634	
1.59677	  0.028014	  0.167622	  0.036536	
1.63004	  0.028635	  0.168857	  0.036432	
1.66331	  0.029296	  0.168143	  0.036356	
1.69657	  0.029829	  0.165585	  0.036302	
1.72984	  0.030020	  0.161753	  0.036233	
1.7631	  0.029759	  0.157442	  0.036110	
1.79637	  0.029114	  0.153406	  0.035931	
1.82964	  0.028270	  0.150158	  0.035727	
1.8629	  0.027412	  0.147927	  0.035523	
1.89617	  0.026648	  0.146764	  0.035300	
1.92944	  0.026028	  0.146673	  0.035017	
1.9627	  0.025577	  0.147671	  0.034656	
1.99597	  0.025293	  0.149807	  0.034253	
2.02923	  0.025109	  0.153163	  0.033866	
2.0625	  0.024912	  0.157780	  0.033525	
2.09577	  0.024613	  0.163485	  0.033221	
2.12903	  0.024225	  0.169716	  0.032946	
2.1623	  0.023863	  0.175557	  0.032739	
2.19556	  0.023669	  0.180015	  0.032662	
2.22883	  0.023709	  0.182371	  0.032738	
2.2621	  0.023921	  0.182349	  0.032914	
2.29536	  0.024166	  0.180062	  0.033099	
2.32863	  0.024317	  0.175889	  0.033237	
2.3619	  0.024339	  0.170407	  0.033334	
2.39516	  0.024269	  0.164330	  0.033422	
2.42843	  0.024146	  0.158390	  0.033499	
2.46169	  0.023949	  0.153185	  0.033533	
2.49496	  0.023632	  0.149127	  0.033505	
2.52823	  0.023205	  0.146469	  0.033444	
2.56149	  0.022774	  0.145333	  0.033393	
2.59476	  0.022481	  0.145669	  0.033360	
2.62802	  0.022390	  0.147229	  0.033310	
2.66129	  0.022426	  0.149595	  0.033203	
2.69456	  0.022429	  0.152250	  0.033032	
2.72782	  0.022280	  0.154659	  0.032820	
2.76109	  0.021981	  0.156332	  0.032593	
2.79435	  0.021640	  0.156899	  0.032366	
2.82762	  0.021369	  0.156143	  0.032147	
2.86089	  0.021205	  0.154010	  0.031936	
2.89415	  0.021100	  0.150623	  0.031719	
2.92742	  0.020985	  0.146345	  0.031488	
2.96069	  0.020840	  0.141802	  0.031262	
2.99395	  0.020708	  0.137765	  0.031101	
3.02722	  0.020650	  0.134909	  0.031083	
3.06048	  0.020680	  0.133632	  0.031249	
3.09375	  0.020735	  0.134059	  0.031571	
3.12702	  0.020726	  0.136138	  0.031975	
3.16028	  0.020620	  0.139663	  0.032402	
3.19355	  0.020492	  0.144194	  0.032847	
3.22681	  0.020485	  0.149012	  0.033344	
3.26008	  0.020711	  0.153304	  0.033917	
3.29335	  0.021160	  0.156488	  0.034542	
3.32661	  0.021695	  0.158455	  0.035144	
3.35988	  0.022137	  0.159490	  0.035618	
3.39315	  0.022362	  0.159961	  0.035865	
3.42641	  0.022355	  0.160036	  0.035834	
3.45968	  0.022200	  0.159655	  0.035551	
3.49294	  0.022013	  0.158755	  0.035116	
3.52621	  0.021879	  0.157535	  0.034657	
3.55948	  0.021814	  0.156526	  0.034275	
3.59274	  0.021787	  0.156390	  0.034009	
3.62601	  0.021762	  0.157548	  0.033836	
3.65927	  0.021740	  0.159898	  0.033714	
3.69254	  0.021767	  0.162825	  0.033613	
3.72581	  0.021897	  0.165523	  0.033534	
3.75907	  0.022146	  0.167385	  0.033492	
3.79234	  0.022460	  0.168206	  0.033499	
3.8256	  0.022733	  0.168095	  0.033554	
3.85887	  0.022869	  0.167250	  0.033638	
3.89214	  0.022860	  0.165766	  0.033702	
3.9254	  0.022791	  0.163626	  0.033677	
3.95867	  0.022776	  0.160813	  0.033506	
3.99194	  0.022844	  0.157448	  0.033185	
4.0252	  0.022906	  0.153823	  0.032791	
4.05847	  0.022813	  0.150320	  0.032456	
4.09173	  0.022485	  0.147269	  0.032298	
4.125	  0.021976	  0.144823	  0.032355	
4.15827	  0.021451	  0.142925	  0.032568	
4.19153	  0.021086	  0.141385	  0.032828	
4.2248	  0.020982	  0.140030	  0.033043	
4.25806	  0.021127	  0.138832	  0.033182	
4.29133	  0.021417	  0.137918	  0.033266	
4.3246	  0.021714	  0.137439	  0.033350	
4.35786	  0.021910	  0.137430	  0.033495	
4.39113	  0.021975	  0.137791	  0.033750	
4.4244	  0.021942	  0.138425	  0.034127	
4.45766	  0.021854	  0.139386	  0.034584	
4.49093	  0.021699	  0.140877	  0.035043	
4.52419	  0.021416	  0.143062	  0.035438	
4.55746	  0.020954	  0.145824	  0.035760	
4.59073	  0.020331	  0.148710	  0.036055	
4.62399	  0.019634	  0.151122	  0.036373	
4.65726	  0.018974	  0.152656	  0.036715	
4.69052	  0.018437	  0.153296	  0.037018	
4.72379	  0.018080	  0.153331	  0.037199	
4.75706	  0.017953	  0.153109	  0.037213	
4.79032	  0.018104	  0.152866	  0.037075	
4.82359	  0.018576	  0.152745	  0.036835	
4.85685	  0.019380	  0.152876	  0.036547	
4.89012	  0.020475	  0.153405	  0.036263	
4.92339	  0.021744	  0.154425	  0.036034	
4.95665	  0.022995	  0.155887	  0.035902	
4.98992	  0.024001	  0.157596	  0.035867	
5.02319	  0.024579	  0.159306	  0.035872	
5.05645	  0.024664	  0.160815	  0.035820	
5.08972	  0.024331	  0.161969	  0.035634	
5.12298	  0.023745	  0.162597	  0.035326	
5.15625	  0.023094	  0.162515	  0.035000	
5.18952	  0.022544	  0.161657	  0.034806	
5.22278	  0.022215	  0.160194	  0.034861	
5.25605	  0.022164	  0.158481	  0.035199	
5.28931	  0.022352	  0.156850	  0.035758	
5.32258	  0.022636	  0.155488	  0.036409	
5.35585	  0.022827	  0.154479	  0.036994	
5.38911	  0.022777	  0.153896	  0.037375	
5.42238	  0.022454	  0.153771	  0.037475	
5.45565	  0.021937	  0.153988	  0.037296	
5.48891	  0.021363	  0.154243	  0.036902	
5.52218	  0.020857	  0.154168	  0.036390	
5.55544	  0.020497	  0.153490	  0.035873	
5.58871	  0.020311	  0.152126	  0.035455	
5.62198	  0.020290	  0.150215	  0.035209	
5.65524	  0.020393	  0.148098	  0.035142	
5.68851	  0.020568	  0.146212	  0.035185	
5.72177	  0.020779	  0.144914	  0.035229	
5.75504	  0.021038	  0.144334	  0.035182	
5.78831	  0.021405	  0.144381	  0.035023	
5.82157	  0.021957	  0.144898	  0.034797	
5.85484	  0.022727	  0.145792	  0.034580	
5.8881	  0.023656	  0.147022	  0.034433	
5.92137	  0.024589	  0.148515	  0.034378	
5.95464	  0.025325	  0.150141	  0.034410	
5.9879	  0.025712	  0.151788	  0.034505	
6.02117	  0.025734	  0.153400	  0.034638	
6.05444	  0.025501	  0.154873	  0.034768	
6.0877	  0.025160	  0.155926	  0.034836	
6.12097	  0.024791	  0.156145	  0.034772	
6.15423	  0.024373	  0.155235	  0.034522	
6.1875	  0.023857	  0.153290	  0.034087	
6.22077	  0.023265	  0.150833	  0.033551	
6.25403	  0.022720	  0.148578	  0.033069	
6.2873	  0.022377	  0.147108	  0.032814	
6.32056	  0.022318	  0.146678	  0.032903	
6.35383	  0.022496	  0.147211	  0.033335	
6.3871	  0.022773	  0.148429	  0.033994	
6.42036	  0.023012	  0.149993	  0.034706	
6.45363	  0.023139	  0.151583	  0.035318	
6.4869	  0.023133	  0.152904	  0.035758	
6.52016	  0.022986	  0.153656	  0.036036	
6.55343	  0.022681	  0.153574	  0.036209	
6.58669	  0.022223	  0.152560	  0.036326	
6.61996	  0.021685	  0.150831	  0.036391	
6.65323	  0.021214	  0.148909	  0.036380	
6.68649	  0.020963	  0.147387	  0.036287	
6.71976	  0.021011	  0.146623	  0.036171	
6.75302	  0.021308	  0.146592	  0.036136	
6.78629	  0.021722	  0.147000	  0.036260	
6.81956	  0.022134	  0.147529	  0.036527	
6.85282	  0.022514	  0.148037	  0.036832	
6.88609	  0.022910	  0.148583	  0.037042	
6.91935	  0.023365	  0.149293	  0.037086	
6.95262	  0.023842	  0.150185	  0.036990	
6.98589	  0.024227	  0.151110	  0.036847	
7.01915	  0.024418	  0.151864	  0.036746	
7.05242	  0.024410	  0.152316	  0.036723	
7.08569	  0.024315	  0.152413	  0.036761	
7.11895	  0.024284	  0.152068	  0.036816	
7.15222	  0.024401	  0.151135	  0.036848	
7.18548	  0.024636	  0.149579	  0.036816	
7.21875	  0.024881	  0.147681	  0.036670	
7.25202	  0.025019	  0.145993	  0.036366	
7.28528	  0.024993	  0.145023	  0.035903	
7.31855	  0.024806	  0.144938	  0.035340	
7.35181	  0.024502	  0.145562	  0.034772	
7.38508	  0.024136	  0.146627	  0.034273	
7.41835	  0.023771	  0.147957	  0.033871	
7.45161	  0.023455	  0.149416	  0.033574	
7.48488	  0.023184	  0.150739	  0.033418	
7.51815	  0.022891	  0.151526	  0.033483	
7.55141	  0.022482	  0.151446	  0.033850	
7.58468	  0.021911	  0.150474	  0.034527	
7.61794	  0.021239	  0.148946	  0.035411	
7.65121	  0.020613	  0.147385	  0.036312	
7.68448	  0.020200	  0.146214	  0.037040	
7.71774	  0.020106	  0.145566	  0.037484	
7.75101	  0.020321	  0.145282	  0.037631	
7.78427	  0.020722	  0.145101	  0.037536	
7.81754	  0.021125	  0.144877	  0.037262	
7.85081	  0.021386	  0.144662	  0.036865	
7.88407	  0.021479	  0.144588	  0.036407	
7.91734	  0.021481	  0.144690	  0.035960	
7.9506	  0.021483	  0.144851	  0.035597	
7.98387	  0.021488	  0.144930	  0.035362	
8.01714	  0.021394	  0.144908	  0.035271	
8.0504	  0.021073	  0.144874	  0.035325	
8.08367	  0.020475	  0.144839	  0.035522	
8.11694	  0.019676	  0.144612	  0.035840	
8.1502	  0.018835	  0.143908	  0.036205	
8.18347	  0.018108	  0.142638	  0.036497	
8.21673	  0.017579	  0.141103	  0.036602	
8.25	  0.017254	  0.139929	  0.036484	
8.28327	  0.017092	  0.139799	  0.036202	
8.31653	  0.017048	  0.141225	  0.035870	
8.3498	  0.017093	  0.144437	  0.035569	
8.38306	  0.017216	  0.149287	  0.035305	
8.41633	  0.017408	  0.155114	  0.035020	
8.4496	  0.017658	  0.160714	  0.034666	
8.48286	  0.017948	  0.164679	  0.034266	
8.51613	  0.018244	  0.166030	  0.033912	
8.5494	  0.018495	  0.164729	  0.033713	
8.58266	  0.018658	  0.161657	  0.033732	
8.61593	  0.018723	  0.158079	  0.033967	
8.64919	  0.018736	  0.155015	  0.034374	
8.68246	  0.018775	  0.152929	  0.034887	
8.71573	  0.018916	  0.151800	  0.035436	
8.74899	  0.019182	  0.151333	  0.035951	
8.78226	  0.019529	  0.151100	  0.036381	
8.81552	  0.019852	  0.150615	  0.036703	
8.84879	  0.020034	  0.149456	  0.036917	
8.88206	  0.020003	  0.147457	  0.037019	
8.91532	  0.019767	  0.144849	  0.036999	
8.94859	  0.019417	  0.142174	  0.036850	
8.98185	  0.019077	  0.140024	  0.036600	
9.01512	  0.018842	  0.138785	  0.036317	
9.04839	  0.018744	  0.138552	  0.036076	
9.08165	  0.018751	  0.139221	  0.035931	
9.11492	  0.018802	  0.140626	  0.035893	
9.14819	  0.018844	  0.142575	  0.035953	
9.18145	  0.018849	  0.144823	  0.036108	
9.21472	  0.018831	  0.147091	  0.036362	
9.24798	  0.018833	  0.149167	  0.036697	
9.28125	  0.018914	  0.150990	  0.037054	
9.31452	  0.019119	  0.152582	  0.037345	
9.34778	  0.019452	  0.153872	  0.037491	
9.38105	  0.019851	  0.154599	  0.037445	
9.41431	  0.020207	  0.154473	  0.037208	
9.44758	  0.020439	  0.153455	  0.036814	
9.48085	  0.020552	  0.151901	  0.036329	
9.51411	  0.020642	  0.150369	  0.035847	
9.54738	  0.020812	  0.149251	  0.035460	
9.58065	  0.021071	  0.148559	  0.035208	
9.61391	  0.021309	  0.148084	  0.035060	
9.64718	  0.021379	  0.147718	  0.034940	
9.68044	  0.021221	  0.147650	  0.034795	
9.71371	  0.020918	  0.148262	  0.034641	
9.74698	  0.020635	  0.149846	  0.034556	
9.78024	  0.020490	  0.152347	  0.034599	
9.81351	  0.020474	  0.155273	  0.034741	
9.84677	  0.020478	  0.157851	  0.034860	
9.88004	  0.020402	  0.159432	  0.034809	
9.91331	  0.020257	  0.159965	  0.034510	
9.94657	  0.020174	  0.160160	  0.034004	
9.97984	  0.020301	  0.161130	  0.033428	
10.0131	  0.020679	  0.163696	  0.032947	
10.0464	  0.021178	  0.167908	  0.032670	
10.0796	  0.021556	  0.173090	  0.032622	
10.1129	  0.021607	  0.178271	  0.032757	
10.1462	  0.021299	  0.182574	  0.032994	
10.1794	  0.020778	  0.185287	  0.033263	
10.2127	  0.020246	  0.185795	  0.033533	
10.246	  0.019826	  0.183690	  0.033817	
10.2792	  0.019523	  0.179099	  0.034151	
10.3125	  0.019286	  0.172910	  0.034562	
10.3458	  0.019094	  0.166534	  0.035034	
10.379	  0.018962	  0.161301	  0.035513	
10.4123	  0.018906	  0.157908	  0.035928	
10.4456	  0.018915	  0.156273	  0.036219	
10.4788	  0.018985	  0.155807	  0.036355	
10.5121	  0.019145	  0.155860	  0.036329	
10.5454	  0.019438	  0.156054	  0.036158	
10.5786	  0.019873	  0.156359	  0.035894	
10.6119	  0.020398	  0.156893	  0.035631	
10.6452	  0.020929	  0.157653	  0.035501	
10.6784	  0.021384	  0.158409	  0.035617	
10.7117	  0.021701	  0.158888	  0.035999	
10.745	  0.021837	  0.159051	  0.036530	
10.7782	  0.021787	  0.159172	  0.036980	
10.8115	  0.021607	  0.159594	  0.037099	
